<?xml version="1.0" encoding="UTF-8" standalone="no"?>
<svg
   viewBox="0 0 1024 1024"
   width="1024"
   height="1024"
   version="1.1"
   id="svg52"
   sodipodi:docname="out.svg"
   inkscape:version="1.3.2 (091e20e, 2023-11-25)"
   inkscape:export-filename="out.png"
   inkscape:export-xdpi="96"
   inkscape:export-ydpi="96"
   xmlns:inkscape="http://www.inkscape.org/namespaces/inkscape"
   xmlns:sodipodi="http://sodipodi.sourceforge.net/DTD/sodipodi-0.dtd"
   xmlns="http://www.w3.org/2000/svg"
   xmlns:svg="http://www.w3.org/2000/svg">
  <defs
     id="defs52" />
  <sodipodi:namedview
     id="namedview52"
     pagecolor="#ffffff"
     bordercolor="#cccccc"
     borderopacity="1"
     inkscape:showpageshadow="0"
     inkscape:pageopacity="1"
     inkscape:pagecheckerboard="0"
     inkscape:deskcolor="#d1d1d1"
     inkscape:zoom="0.44392008"
     inkscape:cx="459.54218"
     inkscape:cy="515.85862"
     inkscape:window-width="1104"
     inkscape:window-height="717"
     inkscape:window-x="0"
     inkscape:window-y="38"
     inkscape:window-maximized="0"
     inkscape:current-layer="svg52"
     inkscape:export-bgcolor="#f5f5f5cf" />
  <g
     id="g53"
     transform="translate(-3.9439703,-0.62524248)">
    <g
       fill="None"
       fill-opacity="0"
       stroke="#000000"
       stroke-opacity="1"
       stroke-width="0.3"
       id="g2">
      <path
         d="M 610,223 C 563.94,154.86 478.37,124.33 399.01,136.01 319.64,147.69 258.66,224.96 267,305 c 12.5,-6.13 25.82,-9.91 39,-14 1.79,-153.23 216.97,-149.58 304,-68 z"
         id="path2" />
    </g>
    <g
       fill="None"
       fill-opacity="0"
       stroke="#000000"
       stroke-opacity="1"
       stroke-width="0.3"
       id="g3">
      <path
         d="m 366,285 c 10.45,-20.52 23.3,-34.18 44.31,-45.69 21,-11.52 46.23,-18.08 71.69,-18.31 25.46,-0.23 51.52,3.92 73.77,16.23 22.25,12.31 29.15,23.52 44.46,44.54 15.31,21.02 9.12,49.13 13.7,74.16 4.57,25.02 -39.32,53.36 -34.71,21.29 4.61,-32.06 -26.43,-42.02 -40.3,-18.3 -13.86,23.72 14.86,45.15 35.06,50.1 20.19,4.96 48.39,-5.3 60.25,-25.79 C 646.09,362.73 650.64,331.96 647,308 643.36,284.05 636.03,262.94 619.75,245.25 603.47,227.56 588.27,218.97 567.08,208.92 545.89,198.87 520.12,192.19 496,190 c -24.12,-2.19 -57.64,1.22 -79.93,8.07 -22.28,6.86 -40.13,17.52 -56.82,33.18 -16.7,15.66 -26.94,34.82 -33.25,55.75 13.34,-0.7 26.39,-2.43 40,-2 z"
         id="path3" />
    </g>
    <g
       fill="None"
       fill-opacity="0"
       stroke="#000000"
       stroke-opacity="1"
       stroke-width="0.3"
       id="g4">
      <path
         d="M 827,679 C 799.27,595.04 774.28,494.07 744.78,412.22 715.28,330.38 713.05,218.64 617,194 c 69.67,71.23 47.65,169.54 48,268 0.35,98.46 4.5,216.95 -1.01,316.99 C 658.48,879.03 510.95,868.41 446,847 c 73.32,66.32 249.66,68.93 256,-62 6.34,-130.93 -5.59,-277.5 1,-409 20.81,70.25 38.86,153.77 63.22,221.78 24.37,68.01 22.99,158.4 98.78,186.22 0.39,-44.26 -0.52,-90.98 0,-135 0.52,-44.02 -0.99,-91.88 0,-135 0.99,-43.12 -2.13,-94.04 0,-135 2.13,-40.96 -20.82,-68.4 -53.33,-81.67 -32.51,-13.28 -89.79,26.44 -54.42,59.42 35.38,32.98 59.13,-62.4 2.75,-33.75 37.09,-37.46 74.09,7.94 68,54 -6.09,46.06 3.4,104 0,152 -3.4,48 3.38,102.29 -1,150 z"
         id="path4" />
    </g>
    <g
       fill="None"
       fill-opacity="0"
       stroke="#000000"
       stroke-opacity="1"
       stroke-width="0.3"
       id="g5">
      <path
         d="m 235,320 c -19.59,3.55 -43.77,-55.66 -10,-53 33.77,2.66 31.08,-39.98 0.67,-38.33 -30.41,1.65 -37.33,27.7 -43.89,51.11 -6.56,23.41 4.92,54.28 17.22,74.22 11.4,-10.79 24.78,-23.51 36,-34 z"
         id="path5" />
    </g>
    <g
       fill="None"
       fill-opacity="0"
       stroke="#000000"
       stroke-opacity="1"
       stroke-width="0.3"
       id="g6">
      <path
         d="M 582,347 C 606.64,246.04 447.24,208.3 399,287 c 31.9,11.17 72.68,-17.86 107.99,-3.99 35.32,13.87 61.94,26.6 75.01,63.99 z"
         id="path6" />
    </g>
    <g
       fill="None"
       fill-opacity="0"
       stroke="#000000"
       stroke-opacity="1"
       stroke-width="0.3"
       id="g7">
      <path
         d="m 737,280 c -8.93,-1.95 -11.23,11.94 -3,14 8.22,2.05 10.89,-12.28 3,-14 z"
         id="path7" />
    </g>
    <g
       fill="None"
       fill-opacity="0"
       stroke="#000000"
       stroke-opacity="1"
       stroke-width="0.3"
       id="g8">
      <path
         d="m 519,293 c -12.42,-3.63 -24.85,-7.23 -38,-8 0.29,33.85 0.48,71.6 1,105 0.52,33.4 -2.87,69.39 3.01,99.99 5.88,30.6 21.06,42.45 39.24,66.76 C 542.43,581.07 567.52,570.91 582,546 482.27,506.83 530.16,377.4 519,293 Z"
         id="path8" />
    </g>
    <g
       fill="None"
       fill-opacity="0"
       stroke="#000000"
       stroke-opacity="1"
       stroke-width="0.3"
       id="g9">
      <path
         d="M 328,509 C 424.21,530.69 518.82,386.45 438.25,322.75 357.68,259.06 244.34,307.65 191.77,381.77 139.2,455.89 172.1,585.74 264,617 c 0,-15 0,-30 0,-45 -56.47,-28.79 -72.99,-98.54 -46.92,-154.92 26.06,-56.39 76.45,-81.5 137.92,-88.08 61.47,-6.58 115.25,72.82 56,119 40.1,-42.38 -31.89,-135.2 -70,-78 25.18,12.72 44.89,26.96 49,58 4.11,31.04 -33.42,52 -62,38 0,14.33 0,28.67 0,43 z"
         id="path9" />
    </g>
    <g
       fill="None"
       fill-opacity="0"
       stroke="#000000"
       stroke-opacity="1"
       stroke-width="0.3"
       id="g10">
      <path
         d="m 313,354 c -12.9,5.06 -24.83,12.36 -37,19 13.61,23.89 27.4,29.34 49.92,45.08 22.53,15.74 61.88,3.8 33.78,-16.78 C 331.6,380.72 329.02,381.71 313,354 Z"
         id="path10" />
    </g>
    <g
       fill="None"
       fill-opacity="0"
       stroke="#000000"
       stroke-opacity="1"
       stroke-width="0.3"
       id="g11">
      <path
         d="m 816,585 c 12.05,-41.61 -13.86,-80.74 -10,-121 3.86,-40.26 -3.1,-82.76 -52,-81 20.17,67.4 40.79,135.22 62,202 z"
         id="path11" />
    </g>
    <g
       fill="None"
       fill-opacity="0"
       stroke="#000000"
       stroke-opacity="1"
       stroke-width="0.3"
       id="g12">
      <path
         d="m 280,397 c -0.14,31.99 0.19,64.02 0,96 -0.19,31.98 0.36,62.92 0,95 -0.36,32.08 1.06,63.2 -0.67,95.33 -1.74,32.12 -58.67,15.72 -27.41,-0.41 31.26,-16.12 -16.66,-53.11 -32.67,-30.67 -16.01,22.44 -6.15,47.09 13,63.5 19.15,16.41 46.29,28.79 68,8.5 21.71,-20.29 15.76,-48.98 16.75,-78.25 0.99,-29.27 -1.78,-65.55 0,-96 1.78,-30.45 -3.79,-64.26 0,-95 3.79,-30.74 -18.55,-38.14 -37,-58 z"
         id="path12" />
    </g>
    <g
       fill="None"
       fill-opacity="0"
       stroke="#000000"
       stroke-opacity="1"
       stroke-width="0.3"
       id="g13">
      <path
         d="m 547,415 c -12.45,-2.25 -14.88,16.04 -3.22,18.22 11.65,2.18 13.6,-16.34 3.22,-18.22 z"
         id="path13" />
    </g>
    <g
       fill="None"
       fill-opacity="0"
       stroke="#000000"
       stroke-opacity="1"
       stroke-width="0.3"
       id="g14">
      <path
         d="m 641,422 c -8.05,-3.01 -12.47,8.23 -5.03,12.02 7.45,3.79 11.66,-9.54 5.03,-12.02 z"
         id="path14" />
    </g>
    <g
       fill="None"
       fill-opacity="0"
       stroke="#000000"
       stroke-opacity="1"
       stroke-width="0.3"
       id="g15">
      <path
         d="m 263,548 c -7.8,-38.85 -4.18,-82.65 -30,-115 -14.75,39.51 -0.41,87.12 30,115 z"
         id="path15" />
    </g>
    <g
       fill="None"
       fill-opacity="0"
       stroke="#000000"
       stroke-opacity="1"
       stroke-width="0.3"
       id="g16">
      <path
         d="m 440,644 c 53.51,5.64 112.46,-7.35 153.75,-40.25 41.29,-32.9 68.17,-81.5 46.02,-133.52 C 617.62,418.21 518.7,447.99 548,507 c 6.59,-44.25 67.07,-31.79 59.99,5.99 -7.07,37.78 -24.85,51.42 -54.29,70.71 -29.45,19.28 -65.76,22.98 -100.7,24.3 -4.94,11.76 -11.68,23.06 -13,36 z"
         id="path16" />
    </g>
    <g
       fill="None"
       fill-opacity="0"
       stroke="#000000"
       stroke-opacity="1"
       stroke-width="0.3"
       id="g17">
      <path
         d="m 476,512 c -66,-44.58 -132.97,41.33 -140,109 -7.03,67.67 12.2,163.15 74,205 -69.46,-94.76 -61.26,-273.19 66,-314 z"
         id="path17" />
    </g>
    <g
       fill="None"
       fill-opacity="0"
       stroke="#000000"
       stroke-opacity="1"
       stroke-width="0.3"
       id="g18">
      <path
         d="M 700,857 C 768.51,840.21 769.56,760.11 765.99,699.01 762.42,637.91 741.46,573.95 725,516 c 3,56.19 6,124.24 4,182 -2,57.76 12.1,115.44 -29,159 z"
         id="path18" />
    </g>
    <g
       fill="None"
       fill-opacity="0"
       stroke="#000000"
       stroke-opacity="1"
       stroke-width="0.3"
       id="g19">
      <path
         d="m 346,535 c -8.49,-1.28 -10.56,11.75 -2.23,13.21 8.34,1.47 9.76,-12.07 2.23,-13.21 z"
         id="path19" />
    </g>
    <g
       fill="None"
       fill-opacity="0"
       stroke="#000000"
       stroke-opacity="1"
       stroke-width="0.3"
       id="g20">
      <path
         d="m 497,554 c -65.74,-39.75 -104.1,47.97 -109,106 -4.9,58.03 8.35,139.31 64.92,173.08 56.57,33.78 127.98,22.22 166.31,-35.85 C 657.56,739.16 643.82,653.62 646,584 c -27.4,17.53 -42.88,42.71 -38,76 4.88,33.29 -1.47,72.88 -13.23,100.77 -11.75,27.89 -32.09,46.13 -60.1,53.9 -28.01,7.77 -57.7,-5.29 -77.75,-27.59 C 436.87,764.79 426.77,736.22 424,706 421.23,675.78 424.97,634.61 438.23,608.23 451.49,581.84 469.67,563.16 497,554 Z"
         id="path20" />
    </g>
    <g
       fill="None"
       fill-opacity="0"
       stroke="#000000"
       stroke-opacity="1"
       stroke-width="0.3"
       id="g21">
      <path
         d="m 534,581 c -18.64,-15.84 -52.78,-9.34 -65,11 22.32,6.24 44.99,-2.79 65,-11 z"
         id="path21" />
    </g>
    <g
       fill="None"
       fill-opacity="0"
       stroke="#000000"
       stroke-opacity="1"
       stroke-width="0.3"
       id="g22">
      <path
         d="m 597,633 c -28.21,15.86 -63.61,22.49 -86,47 20.38,5.67 38.6,24.8 56.25,7.25 C 584.89,669.69 595.52,657.81 597,633 Z"
         id="path22" />
    </g>
    <g
       fill="None"
       fill-opacity="0"
       stroke="#000000"
       stroke-opacity="1"
       stroke-width="0.3"
       id="g23">
      <path
         d="m 482,713 c -36.4,67.59 90.68,103.59 90,33 -0.68,-70.59 -91.86,-64.73 -138,-73 -3.78,27.59 25.59,39.81 48,40 m 34,5 c 11.71,2.22 39.86,24.67 21.75,36.75 C 519.64,766.83 505.3,730.38 516,718 Z"
         id="path23" />
    </g>
    <g
       fill="None"
       fill-opacity="0"
       stroke="#000000"
       stroke-opacity="1"
       stroke-width="0.3"
       id="g24">
      <path
         d="m 592,696 c -9.92,-3.72 -13.35,14.51 -5.08,18.07 8.28,3.56 13.04,-15.09 5.08,-18.07 z"
         id="path24" />
    </g>
    <g
       fill="None"
       fill-opacity="0"
       stroke="#ffffff"
       stroke-opacity="1"
       stroke-width="0.3"
       id="g25">
      <path
         d="m 516,718 c -10.7,12.38 3.64,48.83 21.75,36.75 C 555.86,742.67 527.71,720.22 516,718 Z"
         id="path25" />
    </g>
    <g
       fill="None"
       fill-opacity="0"
       stroke="#000000"
       stroke-opacity="1"
       stroke-width="0.3"
       id="g26">
      <path
         d="m 464,740 c -8.06,-3.02 -13.67,7.51 -6.22,12.22 7.44,4.71 13.75,-9.4 6.22,-12.22 z"
         id="path26" />
    </g>
    <g
       fill="#000000"
       fill-opacity="1"
       stroke="None"
       id="g28">
      <path
         d="M 610,223 C 563.94,154.86 478.37,124.33 399.01,136.01 319.64,147.69 258.66,224.96 267,305 c 12.5,-6.13 25.82,-9.91 39,-14 1.79,-153.23 216.97,-149.58 304,-68 z"
         id="path28" />
    </g>
    <g
       fill="#000000"
       fill-opacity="1"
       stroke="None"
       id="g29">
      <path
         d="m 366,285 c 10.45,-20.52 23.3,-34.18 44.31,-45.69 21,-11.52 46.23,-18.08 71.69,-18.31 25.46,-0.23 51.52,3.92 73.77,16.23 22.25,12.31 29.15,23.52 44.46,44.54 15.31,21.02 9.12,49.13 13.7,74.16 4.57,25.02 -39.32,53.36 -34.71,21.29 4.61,-32.06 -26.43,-42.02 -40.3,-18.3 -13.86,23.72 14.86,45.15 35.06,50.1 20.19,4.96 48.39,-5.3 60.25,-25.79 C 646.09,362.73 650.64,331.96 647,308 643.36,284.05 636.03,262.94 619.75,245.25 603.47,227.56 588.27,218.97 567.08,208.92 545.89,198.87 520.12,192.19 496,190 c -24.12,-2.19 -57.64,1.22 -79.93,8.07 -22.28,6.86 -40.13,17.52 -56.82,33.18 -16.7,15.66 -26.94,34.82 -33.25,55.75 13.34,-0.7 26.39,-2.43 40,-2 z"
         id="path29" />
    </g>
    <g
       fill="#000000"
       fill-opacity="1"
       stroke="None"
       id="g30">
      <path
         d="M 827,679 C 799.27,595.04 774.28,494.07 744.78,412.22 715.28,330.38 713.05,218.64 617,194 c 69.67,71.23 47.65,169.54 48,268 0.35,98.46 4.5,216.95 -1.01,316.99 C 658.48,879.03 510.95,868.41 446,847 c 73.32,66.32 249.66,68.93 256,-62 6.34,-130.93 -5.59,-277.5 1,-409 20.81,70.25 38.86,153.77 63.22,221.78 24.37,68.01 22.99,158.4 98.78,186.22 0.39,-44.26 -0.52,-90.98 0,-135 0.52,-44.02 -0.99,-91.88 0,-135 0.99,-43.12 -2.13,-94.04 0,-135 2.13,-40.96 -20.82,-68.4 -53.33,-81.67 -32.51,-13.28 -89.79,26.44 -54.42,59.42 35.38,32.98 59.13,-62.4 2.75,-33.75 37.09,-37.46 74.09,7.94 68,54 -6.09,46.06 3.4,104 0,152 -3.4,48 3.38,102.29 -1,150 z"
         id="path30" />
    </g>
    <g
       fill="#000000"
       fill-opacity="1"
       stroke="None"
       id="g31">
      <path
         d="m 235,320 c -19.59,3.55 -43.77,-55.66 -10,-53 33.77,2.66 31.08,-39.98 0.67,-38.33 -30.41,1.65 -37.33,27.7 -43.89,51.11 -6.56,23.41 4.92,54.28 17.22,74.22 11.4,-10.79 24.78,-23.51 36,-34 z"
         id="path31" />
    </g>
    <g
       fill="#000000"
       fill-opacity="1"
       stroke="None"
       id="g32">
      <path
         d="M 582,347 C 606.64,246.04 447.24,208.3 399,287 c 31.9,11.17 72.68,-17.86 107.99,-3.99 35.32,13.87 61.94,26.6 75.01,63.99 z"
         id="path32" />
    </g>
    <g
       fill="#000000"
       fill-opacity="1"
       stroke="None"
       id="g33">
      <path
         d="m 737,280 c -8.93,-1.95 -11.23,11.94 -3,14 8.22,2.05 10.89,-12.28 3,-14 z"
         id="path33" />
    </g>
    <g
       fill="#000000"
       fill-opacity="1"
       stroke="None"
       id="g34">
      <path
         d="m 519,293 c -12.42,-3.63 -24.85,-7.23 -38,-8 0.29,33.85 0.48,71.6 1,105 0.52,33.4 -2.87,69.39 3.01,99.99 5.88,30.6 21.06,42.45 39.24,66.76 C 542.43,581.07 567.52,570.91 582,546 482.27,506.83 530.16,377.4 519,293 Z"
         id="path34" />
    </g>
    <g
       fill="#000000"
       fill-opacity="1"
       stroke="None"
       id="g35">
      <path
         d="M 328,509 C 424.21,530.69 518.82,386.45 438.25,322.75 357.68,259.06 244.34,307.65 191.77,381.77 139.2,455.89 172.1,585.74 264,617 c 0,-15 0,-30 0,-45 -56.47,-28.79 -72.99,-98.54 -46.92,-154.92 26.06,-56.39 76.45,-81.5 137.92,-88.08 61.47,-6.58 115.25,72.82 56,119 40.1,-42.38 -31.89,-135.2 -70,-78 25.18,12.72 44.89,26.96 49,58 4.11,31.04 -33.42,52 -62,38 0,14.33 0,28.67 0,43 z"
         id="path35" />
    </g>
    <g
       fill="#000000"
       fill-opacity="1"
       stroke="None"
       id="g36">
      <path
         d="m 313,354 c -12.9,5.06 -24.83,12.36 -37,19 13.61,23.89 27.4,29.34 49.92,45.08 22.53,15.74 61.88,3.8 33.78,-16.78 C 331.6,380.72 329.02,381.71 313,354 Z"
         id="path36" />
    </g>
    <g
       fill="#000000"
       fill-opacity="1"
       stroke="None"
       id="g37">
      <path
         d="m 816,585 c 12.05,-41.61 -13.86,-80.74 -10,-121 3.86,-40.26 -3.1,-82.76 -52,-81 20.17,67.4 40.79,135.22 62,202 z"
         id="path37" />
    </g>
    <g
       fill="#000000"
       fill-opacity="1"
       stroke="None"
       id="g38">
      <path
         d="m 280,397 c -0.14,31.99 0.19,64.02 0,96 -0.19,31.98 0.36,62.92 0,95 -0.36,32.08 1.06,63.2 -0.67,95.33 -1.74,32.12 -58.67,15.72 -27.41,-0.41 31.26,-16.12 -16.66,-53.11 -32.67,-30.67 -16.01,22.44 -6.15,47.09 13,63.5 19.15,16.41 46.29,28.79 68,8.5 21.71,-20.29 15.76,-48.98 16.75,-78.25 0.99,-29.27 -1.78,-65.55 0,-96 1.78,-30.45 -3.79,-64.26 0,-95 3.79,-30.74 -18.55,-38.14 -37,-58 z"
         id="path38" />
    </g>
    <g
       fill="#000000"
       fill-opacity="1"
       stroke="None"
       id="g39">
      <path
         d="m 547,415 c -12.45,-2.25 -14.88,16.04 -3.22,18.22 11.65,2.18 13.6,-16.34 3.22,-18.22 z"
         id="path39" />
    </g>
    <g
       fill="#000000"
       fill-opacity="1"
       stroke="None"
       id="g40">
      <path
         d="m 641,422 c -8.05,-3.01 -12.47,8.23 -5.03,12.02 7.45,3.79 11.66,-9.54 5.03,-12.02 z"
         id="path40" />
    </g>
    <g
       fill="#000000"
       fill-opacity="1"
       stroke="None"
       id="g41">
      <path
         d="m 263,548 c -7.8,-38.85 -4.18,-82.65 -30,-115 -14.75,39.51 -0.41,87.12 30,115 z"
         id="path41" />
    </g>
    <g
       fill="#000000"
       fill-opacity="1"
       stroke="None"
       id="g42">
      <path
         d="m 440,644 c 53.51,5.64 112.46,-7.35 153.75,-40.25 41.29,-32.9 68.17,-81.5 46.02,-133.52 C 617.62,418.21 518.7,447.99 548,507 c 6.59,-44.25 67.07,-31.79 59.99,5.99 -7.07,37.78 -24.85,51.42 -54.29,70.71 -29.45,19.28 -65.76,22.98 -100.7,24.3 -4.94,11.76 -11.68,23.06 -13,36 z"
         id="path42" />
    </g>
    <g
       fill="#000000"
       fill-opacity="1"
       stroke="None"
       id="g43">
      <path
         d="m 476,512 c -66,-44.58 -132.97,41.33 -140,109 -7.03,67.67 12.2,163.15 74,205 -69.46,-94.76 -61.26,-273.19 66,-314 z"
         id="path43" />
    </g>
    <g
       fill="#000000"
       fill-opacity="1"
       stroke="None"
       id="g44">
      <path
         d="M 700,857 C 768.51,840.21 769.56,760.11 765.99,699.01 762.42,637.91 741.46,573.95 725,516 c 3,56.19 6,124.24 4,182 -2,57.76 12.1,115.44 -29,159 z"
         id="path44" />
    </g>
    <g
       fill="#000000"
       fill-opacity="1"
       stroke="None"
       id="g45">
      <path
         d="m 346,535 c -8.49,-1.28 -10.56,11.75 -2.23,13.21 8.34,1.47 9.76,-12.07 2.23,-13.21 z"
         id="path45" />
    </g>
    <g
       fill="#000000"
       fill-opacity="1"
       stroke="None"
       id="g46">
      <path
         d="m 497,554 c -65.74,-39.75 -104.1,47.97 -109,106 -4.9,58.03 8.35,139.31 64.92,173.08 56.57,33.78 127.98,22.22 166.31,-35.85 C 657.56,739.16 643.82,653.62 646,584 c -27.4,17.53 -42.88,42.71 -38,76 4.88,33.29 -1.47,72.88 -13.23,100.77 -11.75,27.89 -32.09,46.13 -60.1,53.9 -28.01,7.77 -57.7,-5.29 -77.75,-27.59 C 436.87,764.79 426.77,736.22 424,706 421.23,675.78 424.97,634.61 438.23,608.23 451.49,581.84 469.67,563.16 497,554 Z"
         id="path46" />
    </g>
    <g
       fill="#000000"
       fill-opacity="1"
       stroke="None"
       id="g47">
      <path
         d="m 534,581 c -18.64,-15.84 -52.78,-9.34 -65,11 22.32,6.24 44.99,-2.79 65,-11 z"
         id="path47" />
    </g>
    <g
       fill="#000000"
       fill-opacity="1"
       stroke="None"
       id="g48">
      <path
         d="m 597,633 c -28.21,15.86 -63.61,22.49 -86,47 20.38,5.67 38.6,24.8 56.25,7.25 C 584.89,669.69 595.52,657.81 597,633 Z"
         id="path48" />
    </g>
    <g
       fill="#000000"
       fill-opacity="1"
       stroke="None"
       id="g49">
      <path
         d="m 482,713 c -36.4,67.59 90.68,103.59 90,33 -0.68,-70.59 -91.86,-64.73 -138,-73 -3.78,27.59 25.59,39.81 48,40 m 34,5 c 11.71,2.22 39.86,24.67 21.75,36.75 C 519.64,766.83 505.3,730.38 516,718 Z"
         id="path49" />
    </g>
    <g
       fill="#000000"
       fill-opacity="1"
       stroke="None"
       id="g50">
      <path
         d="m 592,696 c -9.92,-3.72 -13.35,14.51 -5.08,18.07 8.28,3.56 13.04,-15.09 5.08,-18.07 z"
         id="path50" />
    </g>
    <g
       fill="#ffffff"
       fill-opacity="1"
       stroke="None"
       id="g51">
      <path
         d="m 516,718 c -10.7,12.38 3.64,48.83 21.75,36.75 C 555.86,742.67 527.71,720.22 516,718 Z"
         id="path51" />
    </g>
    <g
       fill="#000000"
       fill-opacity="1"
       stroke="None"
       id="g52">
      <path
         d="m 464,740 c -8.06,-3.02 -13.67,7.51 -6.22,12.22 7.44,4.71 13.75,-9.4 6.22,-12.22 z"
         id="path52" />
    </g>
  </g>
</svg>
